<?xml version="1.0" standalone="no"?>
<!DOCTYPE svg PUBLIC "-//W3C//DTD SVG 20010904//EN"
 "http://www.w3.org/TR/2001/REC-SVG-20010904/DTD/svg10.dtd">
<svg version="1.0" xmlns="http://www.w3.org/2000/svg"
 width="700.000000pt" height="700.000000pt" viewBox="0 0 700.000000 700.000000"
 preserveAspectRatio="xMidYMid meet">
<metadata>
Created by potrace 1.11, written by Peter Selinger 2001-2013
</metadata>
<g transform="translate(0.000000,700.000000) scale(0.100000,-0.100000)"
fill="#000000" stroke="none">
<path d="M742 6255 c-11 -17 -8 -1826 3 -1834 5 -4 422 -7 925 -7 l915 1 0
-924 0 -925 922 0 c914 -1 922 -1 925 19 2 11 3 427 2 925 l0 906 914 -1 c503
0 919 3 925 7 7 4 10 278 9 910 0 496 -1 910 -1 918 -1 13 -109 15 -918 14
-505 -1 -921 -2 -924 -3 -3 0 -5 -408 -5 -906 1 -498 -2 -913 -5 -923 -5 -15
-71 -17 -910 -17 -497 -1 -911 2 -919 6 -14 7 -16 109 -15 923 0 504 -2 917
-5 917 -3 1 -416 2 -918 3 -602 1 -916 -2 -920 -9z"/>
<path d="M739 2566 c-1 -1 -2 -416 -3 -923 -1 -917 -1 -923 19 -924 99 -4
1814 -1 1821 3 11 8 12 1823 0 1835 -5 6 -1827 14 -1837 9z"/>
</g>
</svg>
